<?xml version="1.0" standalone="no"?><!DOCTYPE svg PUBLIC "-//W3C//DTD SVG 1.1//EN" "http://www.w3.org/Graphics/SVG/1.1/DTD/svg11.dtd"><svg t="1749606162975" class="icon" viewBox="0 0 1024 1024" version="1.1" xmlns="http://www.w3.org/2000/svg" p-id="1618" xmlns:xlink="http://www.w3.org/1999/xlink" width="20" height="20"><path d="M221.94174293 11.47284538A164.48425493 164.48425493 0 0 0 57.20482453 176.20976485v682.19276373a164.48425493 164.48425493 0 0 0 164.7369184 164.73691947h513.41322134a164.73691948 164.73691948 0 0 0 164.73691946-164.73691947v-507.85461333a62.40800427 62.40800427 0 0 0-18.19180692-44.21619733L605.48567467 29.91731578a62.6606688 62.6606688 0 0 0-42.95287787-18.4444704z" fill="#3F70FF" p-id="1619"></path><path d="M881.90007681 306.33171793L605.48567467 29.91731578a61.14468479 61.14468479 0 0 0-32.08832641-16.9284864 6.063936 6.063936 0 0 0-7.07459093 6.31659947v133.65924908A192.52995733 192.52995733 0 0 0 758.85271467 345.74729979h133.65924907a6.31659947 6.31659947 0 0 0 6.063936-7.32725547 59.88136533 59.88136533 0 0 0-16.67582293-32.08832639z" fill="#2A58D8" p-id="1620"></path><path d="M764.66398613 314.66962938h123.04736214a54.5754208 54.5754208 0 0 0-6.82192747-8.33791145L605.48567467 29.91731578a70.2405888 70.2405888 0 0 0-8.33791147-6.82192746v122.7946976A168.77954346 168.77954346 0 0 0 764.66398613 314.66962938z" fill="#C6E1FF" p-id="1621"></path><path d="M210.31919999 463.74138085h56.0914048a108.39285013 108.39285013 0 0 1 73.77788481 22.48709547 86.91641173 86.91641173 0 0 1 27.0350464 69.22993173 89.6957152 89.6957152 0 0 1-26.78238293 70.2405888 104.09756267 104.09756267 0 0 1-72.00923628 23.24508693h-58.1127168z m53.56476481 155.388352a55.33341333 55.33341333 0 0 0 61.6500128-63.6713248 54.5754208 54.5754208 0 0 0-61.6500128-62.1553408h-12.63319893v126.3319936zM422.3042848 626.45698832a97.52829867 97.52829867 0 0 1-25.26639892-70.99858027 95.7596512 95.7596512 0 0 1 25.26639892-70.24058773 88.43239573 88.43239573 0 0 1 65.94530028-25.26639893 88.17973119 88.17973119 0 0 1 65.69263679 25.26639893 96.26497921 96.26497921 0 0 1 25.26639892 70.24058773 97.52829867 97.52829867 0 0 1-25.26639892 70.99858027 85.90575574 85.90575574 0 0 1-65.69263679 25.26639893 86.15841919 86.15841919 0 0 1-65.94530028-25.26639893z m101.06559468-23.49775039A75.79919572 75.79919572 0 0 0 537.26639893 555.45840806a73.01989227 73.01989227 0 0 0-13.64385599-46.74283734 47.24816533 47.24816533 0 0 0-72.00923521 0 73.01989227 73.01989227 0 0 0-13.643856 46.74283734 75.79919572 75.79919572 0 0 0 13.643856 47.50082987 45.98484587 45.98484587 0 0 0 72.00923521 0zM636.3106816 627.97297232a93.48567467 93.48567467 0 0 1-27.28771093-70.99858027A94.24366719 94.24366719 0 0 1 638.3319936 485.72314832a91.7170272 91.7170272 0 0 1 66.70329173-25.26639894 83.6317792 83.6317792 0 0 1 59.88136534 23.75041494l-21.47643946 23.4977504a56.0914048 56.0914048 0 0 0-37.64693333-15.41250347 48.51148586 48.51148586 0 0 0-38.40492588 16.92848747 67.7139488 67.7139488 0 0 0-15.41250346 46.74283733 70.74591573 70.74591573 0 0 0 14.65451094 47.50082987 47.24816533 47.24816533 0 0 0 38.40492585 17.18115093 58.87070934 58.87070934 0 0 0 42.19488641-18.19180693l21.47643839 22.9924224a85.6530912 85.6530912 0 0 1-64.93464425 27.28771093 91.96969067 91.96969067 0 0 1-67.46128428-24.76107093z" fill="#F5F6FA" p-id="1622"></path></svg>