<?xml version="1.0" standalone="no"?><!DOCTYPE svg PUBLIC "-//W3C//DTD SVG 1.1//EN" "http://www.w3.org/Graphics/SVG/1.1/DTD/svg11.dtd"><svg t="1749606166364" class="icon" viewBox="0 0 1024 1024" version="1.1" xmlns="http://www.w3.org/2000/svg" p-id="1782" xmlns:xlink="http://www.w3.org/1999/xlink" width="20" height="20"><path d="M275.338818 1.787086a166.454251 166.454251 0 0 0-166.454251 166.45425v689.304413a166.454251 166.454251 0 0 0 166.454251 166.454251h519.020693a166.454251 166.454251 0 0 0 166.454251-166.454251V344.141611a64.335079 64.335079 0 0 0-18.636749-44.677138L662.881077 20.168537a63.058589 63.058589 0 0 0-44.677138-18.381451z" fill="#FC4A49" p-id="1783"></path><path d="M942.177013 299.464473L662.881077 20.168537a61.271503 61.271503 0 0 0-32.422837-16.849664 6.12715 6.12715 0 0 0-7.148342 6.12715v135.052606A194.537023 194.537023 0 0 0 818.357517 339.035652h135.052605a6.382448 6.382448 0 0 0 6.382448-7.148342 63.569185 63.569185 0 0 0-17.615557-32.422837z" fill="#F91716" p-id="1784"></path><path d="M824.739965 307.889304h124.330092a55.144353 55.144353 0 0 0-6.893044-8.424831L662.881077 20.168537a55.144353 55.144353 0 0 0-8.424832-6.893045v124.330093a170.28372 170.28372 0 0 0 170.28372 170.283719z" fill="#FFC3C3" p-id="1785"></path><path d="M282.231862 459.536275h67.653952c53.867863 0 80.929444 19.657941 80.929444 58.718524a54.123161 54.123161 0 0 1-23.232112 46.97482 95.992022 95.992022 0 0 1-56.420842 15.062577h-26.806283v65.611569H282.231862z m66.122164 91.141361c28.082772 0 41.868861-10.722513 41.868861-32.422837a25.529793 25.529793 0 0 0-10.977811-22.721516 62.547993 62.547993 0 0 0-32.422837-6.382448h-23.232112v61.526801zM468.85465 459.536275h56.420842a110.288706 110.288706 0 0 1 74.546996 22.721516 88.333084 88.333084 0 0 1 27.316879 70.206931 90.12017 90.12017 0 0 1-27.061581 70.717527 103.906258 103.906258 0 0 1-72.504612 23.742707h-58.718524z m53.867863 157.263526a55.910247 55.910247 0 0 0 62.292695-64.335079 55.399651 55.399651 0 0 0-62.292695-63.058589h-12.764896v127.648965zM667.47644 459.536275h127.648965v31.146348h-86.2907v48.761905h73.015208v31.401645h-73.015208v76.589379h-41.358265z" fill="#F5F6FA" p-id="1786"></path></svg>