<?xml version="1.0" standalone="no"?><!DOCTYPE svg PUBLIC "-//W3C//DTD SVG 1.1//EN" "http://www.w3.org/Graphics/SVG/1.1/DTD/svg11.dtd"><svg t="1749606170487" class="icon" viewBox="0 0 1024 1024" version="1.1" xmlns="http://www.w3.org/2000/svg" p-id="1946" xmlns:xlink="http://www.w3.org/1999/xlink" width="20" height="20"><path d="M214.709677 0h466.910968l256 256V891.870968a132.129032 132.129032 0 0 1-132.129032 132.129032H214.709677a132.129032 132.129032 0 0 1-132.129032-132.129032V132.129032a132.129032 132.129032 0 0 1 132.129032-132.129032z" fill="#EB5E5E" p-id="1947"></path><path d="M681.620645 0l256 256h-153.6a102.4 102.4 0 0 1-102.4-102.4V0z" fill="#FFFFFF" opacity=".603" p-id="1948"></path><path d="M363.354839 379.870968m-49.548387 0a49.548387 49.548387 0 1 0 99.096774 0 49.548387 49.548387 0 1 0-99.096774 0Z" fill="#FFFFFF" p-id="1949"></path><path d="M325.037419 693.677419H726.709677a16.516129 16.516129 0 0 0 16.516129-16.516129v-182.404129a16.516129 16.516129 0 0 0-26.19458-13.378064l-175.401291 126.645677a16.516129 16.516129 0 0 1-21.80129-2.180129l-50.341161-54.56929a16.516129 16.516129 0 0 0-22.957419-1.255226l-132.294194 114.654968A16.516129 16.516129 0 0 0 325.037419 693.677419z" fill="#FFFFFF" p-id="1950"></path></svg>