<?xml version="1.0" standalone="no"?><!DOCTYPE svg PUBLIC "-//W3C//DTD SVG 1.1//EN" "http://www.w3.org/Graphics/SVG/1.1/DTD/svg11.dtd"><svg t="1749606356784" class="icon" viewBox="0 0 1024 1024" version="1.1" xmlns="http://www.w3.org/2000/svg" p-id="1556" xmlns:xlink="http://www.w3.org/1999/xlink" width="20" height="20"><path d="M289.269897 7.111109A165.333292 165.333292 0 0 0 123.682636 172.69837v685.714116a165.333292 165.333292 0 0 0 165.587261 165.58726h516.063364a165.587261 165.587261 0 0 0 165.58726-165.58726V347.936422a62.730143 62.730143 0 0 0-18.28571-43.174593L674.79361 25.396819a62.984111 62.984111 0 0 0-44.444433-18.28571z" fill="#FF803F" p-id="1557"></path><path d="M952.634811 304.761829L674.79361 25.396819a61.460302 61.460302 0 0 0-32.25396-16.761901 6.095237 6.095237 0 0 0-7.111109 6.349205v134.349173a193.523762 193.523762 0 0 0 193.523761 193.523762h134.349173a6.095237 6.095237 0 0 0 6.095237-7.11111 60.952366 60.952366 0 0 0-16.761901-30.984119z" fill="#F3671E" p-id="1558"></path><path d="M835.809443 311.872939h123.68251a54.857129 54.857129 0 0 0-6.857142-8.380951L674.79361 25.396819a70.603157 70.603157 0 0 0-8.38095-6.857141V142.222187a169.650752 169.650752 0 0 0 169.396783 169.650752z" fill="#FECEB4" p-id="1559"></path><path d="M336.000044 625.523654l95.492039-132.825363h-86.349184v-30.98412h136.380918v22.095233l-95.238072 132.825364h96.253945v31.238087h-146.539646zM518.857141 461.714171h41.142847v186.158684h-41.142847zM610.28569 461.714171h67.301571c53.587288 0 80.253948 19.301583 80.253948 58.412684a53.841256 53.841256 0 0 1-22.857137 46.730147 96.253944 96.253944 0 0 1-56.380939 14.984124h-27.428564v66.031729h-40.888879z m65.523793 90.666644c27.936501 0 41.904752-10.920632 41.904752-32.25396a25.396819 25.396819 0 0 0-11.174601-22.857137 64.253952 64.253952 0 0 0-31.999992-6.095237h-23.365073v61.206334z" fill="#F5F6FA" p-id="1560"></path></svg>